<svg width="300" height="300" viewBox="0 0 300 300" fill="none" xmlns="http://www.w3.org/2000/svg">
<g clip-path="url(#clip0)">
<path d="M44 65V45H256V65H44Z" fill="#D1D5DB"/>
<path d="M44 102V82H177V102H44Z" fill="#D1D5DB"/>
<path d="M44 139V119H212V139H44Z" fill="#D1D5DB"/>
<path d="M44 176V156H256V176H44Z" fill="#D1D5DB"/>
<path d="M44 213V193H136V213H44Z" fill="#D1D5DB"/>
<path d="M44 250V230H256V250H44Z" fill="#D1D5DB"/>
<path fill-rule="evenodd" clip-rule="evenodd" d="M0 32V268C0 278.5 6.4 299.6 32 300H268C278.5 299.833 299.6 293.2 300 268V32C300.167 21.8333 293.8 1.2 267 0H31C21 0.333333 0.8 7.2 0 32ZM275 25H25V275H275V25Z" fill="#D1D5DB"/>
</g>
<defs>
<clipPath id="clip0">
<rect width="300" height="300" fill="white"/>
</clipPath>
</defs>
</svg>
