<svg xmlns="http://www.w3.org/2000/svg" width="300" height="300" fill="none" viewBox="0 0 300 300"><g clip-path="url(#clip0)"><path fill="#D1D5DB" d="M143 48.75V10.75H300V48.75H143Z"/><path fill="#D1D5DB" d="M142 208.5V170.5H299V208.5H142Z"/><path fill="#D1D5DB" d="M142.215 128.5V90.5H299.215V128.5H142.215Z"/><path fill="#D1D5DB" d="M141.215 288.25V250.25H298.215V288.25H141.215Z"/><path fill="#999" d="M63.2852 30.25C63.2852 47.5089 49.2941 61.5 32.0352 61.5C14.7763 61.5 0.785156 47.5089 0.785156 30.25C0.785156 12.9911 14.7763 -1 32.0352 -1C49.2941 -1 63.2852 12.9911 63.2852 30.25Z"/><path fill="#999" d="M63.2852 30.25C63.2852 47.5089 49.2941 61.5 32.0352 61.5C14.7763 61.5 0.785156 47.5089 0.785156 30.25C0.785156 12.9911 14.7763 -1 32.0352 -1C49.2941 -1 63.2852 12.9911 63.2852 30.25Z"/><path fill="#999" d="M63.2852 30.25C63.2852 47.5089 49.2941 61.5 32.0352 61.5C14.7763 61.5 0.785156 47.5089 0.785156 30.25C0.785156 12.9911 14.7763 -1 32.0352 -1C49.2941 -1 63.2852 12.9911 63.2852 30.25Z"/><path fill="#999" d="M63.2852 30.25C63.2852 47.5089 49.2941 61.5 32.0352 61.5C14.7763 61.5 0.785156 47.5089 0.785156 30.25C0.785156 12.9911 14.7763 -1 32.0352 -1C49.2941 -1 63.2852 12.9911 63.2852 30.25Z"/><path fill="#999" d="M62.2852 190C62.2852 207.259 48.2941 221.25 31.0352 221.25C13.7763 221.25 -0.214844 207.259 -0.214844 190C-0.214844 172.741 13.7763 158.75 31.0352 158.75C48.2941 158.75 62.2852 172.741 62.2852 190Z"/><path fill="#999" d="M62.2852 190C62.2852 207.259 48.2941 221.25 31.0352 221.25C13.7763 221.25 -0.214844 207.259 -0.214844 190C-0.214844 172.741 13.7763 158.75 31.0352 158.75C48.2941 158.75 62.2852 172.741 62.2852 190Z"/><path fill="#999" d="M62.2852 190C62.2852 207.259 48.2941 221.25 31.0352 221.25C13.7763 221.25 -0.214844 207.259 -0.214844 190C-0.214844 172.741 13.7763 158.75 31.0352 158.75C48.2941 158.75 62.2852 172.741 62.2852 190Z"/><path fill="#999" d="M62.2852 190C62.2852 207.259 48.2941 221.25 31.0352 221.25C13.7763 221.25 -0.214844 207.259 -0.214844 190C-0.214844 172.741 13.7763 158.75 31.0352 158.75C48.2941 158.75 62.2852 172.741 62.2852 190Z"/><path fill="#999" d="M62.5 110C62.5 127.259 48.5089 141.25 31.25 141.25C13.9911 141.25 0 127.259 0 110C0 92.7411 13.9911 78.75 31.25 78.75C48.5089 78.75 62.5 92.7411 62.5 110Z"/><path fill="#999" d="M62.5 110C62.5 127.259 48.5089 141.25 31.25 141.25C13.9911 141.25 0 127.259 0 110C0 92.7411 13.9911 78.75 31.25 78.75C48.5089 78.75 62.5 92.7411 62.5 110Z"/><path fill="#999" d="M62.5 110C62.5 127.259 48.5089 141.25 31.25 141.25C13.9911 141.25 0 127.259 0 110C0 92.7411 13.9911 78.75 31.25 78.75C48.5089 78.75 62.5 92.7411 62.5 110Z"/><path fill="#999" d="M62.5 110C62.5 127.259 48.5089 141.25 31.25 141.25C13.9911 141.25 0 127.259 0 110C0 92.7411 13.9911 78.75 31.25 78.75C48.5089 78.75 62.5 92.7411 62.5 110Z"/><path fill="#999" d="M61.5 269.75C61.5 287.009 47.5089 301 30.25 301C12.9911 301 -1 287.009 -1 269.75C-1 252.491 12.9911 238.5 30.25 238.5C47.5089 238.5 61.5 252.491 61.5 269.75Z"/><path fill="#999" d="M61.5 269.75C61.5 287.009 47.5089 301 30.25 301C12.9911 301 -1 287.009 -1 269.75C-1 252.491 12.9911 238.5 30.25 238.5C47.5089 238.5 61.5 252.491 61.5 269.75Z"/><path fill="#999" d="M61.5 269.75C61.5 287.009 47.5089 301 30.25 301C12.9911 301 -1 287.009 -1 269.75C-1 252.491 12.9911 238.5 30.25 238.5C47.5089 238.5 61.5 252.491 61.5 269.75Z"/><path fill="#999" d="M61.5 269.75C61.5 287.009 47.5089 301 30.25 301C12.9911 301 -1 287.009 -1 269.75C-1 252.491 12.9911 238.5 30.25 238.5C47.5089 238.5 61.5 252.491 61.5 269.75Z"/></g><defs><clipPath id="clip0"><rect width="300" height="300" fill="#fff"/></clipPath></defs></svg>