<svg xmlns="http://www.w3.org/2000/svg" width="300" height="300" fill="none" viewBox="0 0 300 300"><g clip-path="url(#clip0)"><path fill="#0080FF" fill-rule="evenodd" d="M0 50V250.048L300 249V50H0ZM14 62V237H96.2386V62H14ZM109 237V62H191.239V237H109ZM204 62V237H286.239V62H204Z" clip-rule="evenodd"/><path fill="#0080FF" fill-rule="evenodd" d="M28.0152 143.5V157.5C27.6818 168.333 32.7152 190.1 55.5152 190.5C64.5153 190.5 82.5156 183.9 82.5156 157.5V143.5C82.5156 132.333 77.1156 110 55.5156 110C46.3488 110 28.0152 116.7 28.0152 143.5ZM46 139.5V162.5C46 167.167 47.8 176.5 55 176.5C58 176.5 64 173.7 64 162.5V139.5C64 134.333 62.2 124 55 124C52 124 46 127.1 46 139.5Z" clip-rule="evenodd"/><path fill="#0080FF" fill-rule="evenodd" d="M123.015 143.5V157.5C122.682 168.333 127.715 190.1 150.515 190.5C159.515 190.5 177.516 183.9 177.516 157.5V143.5C177.516 132.333 172.116 110 150.516 110C141.349 110 123.015 116.7 123.015 143.5ZM141 139.5V162.5C141 167.167 142.8 176.5 150 176.5C153 176.5 159 173.7 159 162.5V139.5C159 134.333 157.2 124 150 124C147 124 141 127.1 141 139.5Z" clip-rule="evenodd"/><path fill="#0080FF" d="M218 180.5V167H274.5V176.5L250.5 232H231.5L255 180.5H218Z"/><path fill="#0080FF" fill-rule="evenodd" d="M223.338 66H241.838C240.338 67.6667 237.438 71.8 237.838 75C242.838 70.6667 255.838 64.6 267.838 75C273.672 81.1667 281.838 97.9 267.838 115.5C262.338 121.333 246.638 129.5 227.838 115.5C225.172 112.833 219.738 104.8 219.338 94C218.672 88.6667 218.538 75.6 223.338 66ZM237 89V95C237 99.6667 239 109 247 109C250.333 109 257 106.2 257 95C257 91 255 83 247 83C245.333 83 241 84.2 237 89Z" clip-rule="evenodd"/></g><defs><clipPath id="clip0"><rect width="300" height="300" fill="#fff"/></clipPath></defs></svg>