<svg xmlns="http://www.w3.org/2000/svg" width="301" height="300" fill="none" viewBox="0 0 301 300"><path fill="#D1D5DB" fill-rule="evenodd" d="M0 32V268C0 278.5 6.4 299.6 32 300H268C278.5 299.833 299.6 293.2 300 268V32C300.167 21.8333 293.8 1.2 267 0H31C21 0.333333 0.8 7.2 0 32ZM275 25H25V275H275V25Z" clip-rule="evenodd"/><path fill="#999" d="M65.7917 150.083C65.7917 132.271 80.2708 117.792 98.0833 117.792H139.75V98H98.0833C84.27 98 71.0224 103.487 61.2549 113.255C51.4873 123.022 46 136.27 46 150.083C46 163.897 51.4873 177.144 61.2549 186.912C71.0224 196.679 84.27 202.167 98.0833 202.167H139.75V182.375H98.0833C80.2708 182.375 65.7917 167.896 65.7917 150.083ZM108.5 160.5H191.833V139.667H108.5V160.5ZM202.25 98H160.583V117.792H202.25C220.062 117.792 234.542 132.271 234.542 150.083C234.542 167.896 220.062 182.375 202.25 182.375H160.583V202.167H202.25C216.063 202.167 229.311 196.679 239.078 186.912C248.846 177.144 254.333 163.897 254.333 150.083C254.333 136.27 248.846 123.022 239.078 113.255C229.311 103.487 216.063 98 202.25 98Z"/></svg>