<svg width="300" height="269" viewBox="0 0 300 269" fill="none" xmlns="http://www.w3.org/2000/svg">
<path d="M71.8706 63.3927H0V0H71.8706V63.3927Z" fill="#FF3B7C"/>
<path d="M147.593 63.3927H75.7227V0H147.593V63.3927Z" fill="#01E0CB"/>
<path d="M223.314 63.3927H152.727V0H223.314V63.3927Z" fill="#FF3B7C"/>
<path d="M300 63.3927H228.129V0H300V63.3927Z" fill="#01E0CB"/>
<path d="M71.8706 131.25H0V67.8574H71.8706V131.25Z" fill="#01E0CB"/>
<path d="M147.589 131.25H75.7188V67.8574H147.589V131.25Z" fill="#FF3B7C"/>
<path d="M223.314 131.25H152.727V67.8574H223.314V131.25Z" fill="#01E0CB"/>
<path d="M300.003 131.25H228.133V67.8574H300.003V131.25Z" fill="#FF3B7C"/>
<path d="M71.8706 200H0V136.607H71.8706V200Z" fill="#FF3B7C"/>
<path d="M71.8706 268.393H0V205H71.8706V268.393Z" fill="#FF3B7C"/>
<path d="M147.589 200H75.7188V136.607H147.589V200Z" fill="#01E0CB"/>
<path d="M147.589 268.393H75.7188V205H147.589V268.393Z" fill="#01E0CB"/>
<path d="M223.314 200H152.727V136.607H223.314V200Z" fill="#01E0CB"/>
<path d="M223.314 268.393H152.727V205H223.314V268.393Z" fill="#FF3B7C"/>
<path d="M300.003 200H228.133V136.607H300.003V200Z" fill="#FF3B7C"/>
<path d="M300.003 268.393H228.133V205H300.003V268.393Z" fill="#01E0CB"/>
</svg>
