<svg xmlns="http://www.w3.org/2000/svg" width="300" height="300" fill="none" viewBox="0 0 300 300"><g clip-path="url(#clip0)"><path fill="#fff" d="M13 113V64H94V113H13Z"/><path fill="#fff" d="M109 113V64H190V113H109Z"/><path fill="#fff" d="M205 113V64H286V113H205Z"/><path fill="#D1D5DB" fill-rule="evenodd" d="M0 251C-0.8 251 -1 250.333 -1 250V50C-1 49.2 -0.333333 49 0 49H300C300.8 49 301 49.6667 301 50V249C301 249.8 300.333 250 300 250C200.333 250.333 0.8 251 0 251ZM13 176V127H94V176H13ZM109 127V176H190V127H109ZM205 176V127H286V176H205ZM13 187V236H94V187H13ZM109 236V187H190V236H109ZM205 187V236H286V187H205Z" clip-rule="evenodd"/><path fill="#0080FF" fill-rule="evenodd" d="M-1 127H13H94H109H190H205H286H301V50C301 49.6667 300.8 49 300 49H0C-0.333333 49 -1 49.2 -1 50V127ZM13 113V64H94V113H13ZM109 64V113H190V64H109ZM205 113V64H286V113H205Z" clip-rule="evenodd"/></g><defs><clipPath id="clip0"><rect width="300" height="300" fill="#fff"/></clipPath></defs></svg>