<svg xmlns="http://www.w3.org/2000/svg" width="301" height="300" fill="none" viewBox="0 0 301 300"><path fill="#D1D5DB" fill-rule="evenodd" d="M0 76.6688V273.333C0 282.083 5.33328 299.666 26.6664 300H223.331C232.081 299.861 249.664 294.333 249.997 273.333V76.6688C250.136 68.1967 244.831 51.0024 222.498 50.0024H25.8331C17.4998 50.2802 0.66666 56.0024 0 76.6688ZM229.162 70.8356H20.8306V279.167H229.162V70.8356Z" clip-rule="evenodd"/><path fill="#D1D5DB" d="M242 274.997H248.331C257.081 274.858 274.664 269.331 274.997 248.331V51.6664C275.136 43.1943 269.831 26 247.498 25H50.8331C42.4998 25.2778 25.6667 30.9999 25 51.6664V57H45.8306V45.8332H254.162V254.164H242V274.997Z"/><path fill="#D1D5DB" d="M267 249.997H273.331C282.081 249.858 299.664 244.331 299.997 223.331V26.6664C300.136 18.1943 294.831 0.999989 272.498 0H75.8331C67.4998 0.277775 50.6667 5.99994 50 26.6664V32H70.8306V20.8332H279.162V229.164H267V249.997Z"/><path fill="#999" d="M158.146 222.07C161.3 222.07 163.909 223.162 165.972 225.346C168.156 227.409 169.248 229.835 169.248 232.626C169.248 235.659 168.156 238.147 165.972 240.088C163.909 242.029 161.3 243 158.146 243H97.1758C94.0212 243 91.3518 241.969 89.1678 239.906C87.1052 237.722 86.0738 235.053 86.0738 231.898V126.702C86.0738 123.547 87.1052 120.939 89.1678 118.876C91.3518 116.692 94.0212 115.6 97.1758 115.6H158.146C161.3 115.6 163.909 116.631 165.972 118.694C168.156 120.635 169.248 123.183 169.248 126.338C169.248 129.371 168.216 131.859 166.154 133.8C164.091 135.62 161.422 136.53 158.146 136.53H108.824V167.47H149.956C153.11 167.47 155.719 168.501 157.782 170.564C159.966 172.505 161.058 175.053 161.058 178.208C161.058 181.241 160.026 183.729 157.964 185.67C155.901 187.49 153.232 188.4 149.956 188.4H108.824V222.07H158.146Z"/></svg>