<svg xmlns="http://www.w3.org/2000/svg" width="300" height="300" fill="none" viewBox="0 0 300 300"><g clip-path="url(#clip0)"><path fill="#D39E00" fill-rule="evenodd" d="M162.53 22.5001C163.154 20.7407 163.494 18.8473 163.494 16.875C163.494 7.55519 155.914 0 146.563 0C137.213 0 129.633 7.55519 129.633 16.875C129.633 18.8473 129.972 20.7407 130.596 22.5001H162.53Z" clip-rule="evenodd"/><path fill="#D39E00" fill-rule="evenodd" d="M114.79 262.5C114.653 263.731 114.583 264.983 114.583 266.25C114.583 284.89 129.743 300 148.444 300C167.145 300 182.305 284.89 182.305 266.25C182.305 264.983 182.235 263.731 182.098 262.5H114.79Z" clip-rule="evenodd"/><path fill="#FFC107" d="M286 229.215C170.022 284.714 55.6759 252.34 13 229.215L31.0909 204.841L77.0138 142.968C64.9641 42.4719 119.69 23.5975 148.559 26.7223C222.363 25.2224 225.752 103.595 218.221 142.968L266.845 204.841L286 229.215Z"/><path stroke="#FFC107" stroke-linejoin="round" stroke-width="4" d="M31.0909 204.841L77.0138 142.968C64.9641 42.4719 119.69 23.5975 148.559 26.7223C222.363 25.2224 225.752 103.595 218.221 142.968L266.845 204.841M31.0909 204.841L13 229.215C55.6759 252.34 170.022 284.714 286 229.215L266.845 204.841M31.0909 204.841C67.5181 224.215 165.667 251.34 266.845 204.841"/></g><defs><clipPath id="clip0"><rect width="300" height="300" fill="#fff"/></clipPath></defs></svg>