<svg xmlns="http://www.w3.org/2000/svg" width="300" height="300" fill="none" viewBox="0 0 300 300"><g clip-path="url(#clip0)"><path fill="#0080FF" d="M82.127 276.25C71.4742 297.468 45.6376 306.033 24.4193 295.38C3.20096 284.727 -5.36412 258.891 5.28863 237.673C15.9414 216.454 41.778 207.889 62.9963 218.542C84.2146 229.195 92.7797 255.031 82.127 276.25Z"/><path fill="#0080FF" d="M229.127 207.25C218.474 228.468 192.638 237.033 171.419 226.38C150.201 215.727 141.636 189.891 152.289 168.673C162.941 147.454 188.778 138.889 209.996 149.542C231.215 160.195 239.78 186.031 229.127 207.25Z"/><path fill="#0080FF" d="M292.378 21.2908C305.105 41.3338 299.175 67.8991 279.132 80.6261C259.089 93.3532 232.523 87.4224 219.796 67.3794C207.069 47.3364 213 20.7711 233.043 8.04408C253.086 -4.68293 279.651 1.24783 292.378 21.2908Z"/><path fill="#0080FF" d="M57.111 273.978L41.6147 242.645L172.25 179.287L187.571 211.01L57.111 273.978Z"/><path fill="#0080FF" d="M212.978 186.724L181.017 172.571L240.825 40.2731L272.902 54.838L212.978 186.724Z"/></g><defs><clipPath id="clip0"><rect width="300" height="300" fill="#fff"/></clipPath></defs></svg>