<svg width="300" height="300" viewBox="0 0 300 300" fill="none" xmlns="http://www.w3.org/2000/svg">
<g clip-path="url(#clip0)">
<path d="M0 301.486V208.02H28.4761V301.486H0Z" fill="#0080FF"/>
<path d="M105.502 301.269V167.155H133.978V301.269H105.502Z" fill="#0080FF"/>
<path d="M52.752 301.483V243.153H81.2281V301.483H52.752Z" fill="#0080FF"/>
<path d="M162.812 301.486V208.02H191.289V301.486H162.812Z" fill="#0080FF"/>
<path d="M268.773 300.982V115.227H296.792V300.982H268.773Z" fill="#0080FF"/>
<path d="M215.848 300.982V175.416H243.867V300.982H215.848Z" fill="#0080FF"/>
<circle cx="30.285" cy="155.677" r="30.285" fill="#01E0CB"/>
<circle cx="100.851" cy="94.6624" r="30.285" fill="#01E0CB"/>
<circle cx="197.361" cy="108.153" r="30.285" fill="#01E0CB"/>
<circle cx="268.965" cy="29.285" r="30.285" fill="#01E0CB"/>
<rect x="105.746" y="80.9814" width="84.798" height="24.4774" transform="rotate(9.51881 105.746 80.9814)" fill="#01E0CB"/>
<rect x="30.2832" y="137.5" width="84.798" height="24.4774" transform="rotate(-40 30.2832 137.5)" fill="#01E0CB"/>
<rect x="197.17" y="95.1675" width="104.647" height="24.4774" transform="rotate(-48.6237 197.17 95.1675)" fill="#01E0CB"/>
</g>
<defs>
<clipPath id="clip0">
<rect width="300" height="300" fill="white"/>
</clipPath>
</defs>
</svg>
