<svg xmlns="http://www.w3.org/2000/svg" width="301" height="300" fill="none" viewBox="0 0 301 300"><path fill="#D1D5DB" fill-rule="evenodd" d="M0 76.6688V273.333C0 282.083 5.33328 299.666 26.6664 300H223.331C232.081 299.861 249.664 294.333 249.997 273.333V76.6688C250.136 68.1967 244.831 51.0024 222.498 50.0024H25.8331C17.4998 50.2802 0.66666 56.0024 0 76.6688ZM229.162 70.8356H20.8306V279.167H229.162V70.8356Z" clip-rule="evenodd"/><path fill="#D1D5DB" d="M242 274.997H248.331C257.081 274.858 274.664 269.331 274.997 248.331V51.6664C275.136 43.1943 269.831 26 247.498 25H50.8331C42.4998 25.2778 25.6667 30.9999 25 51.6664V57H45.8306V45.8332H254.162V254.164H242V274.997Z"/><path fill="#D1D5DB" d="M267 249.997H273.331C282.081 249.858 299.664 244.331 299.997 223.331V26.6664C300.136 18.1943 294.831 0.999989 272.498 0H75.8331C67.4998 0.277775 50.6667 5.99994 50 26.6664V32H70.8306V20.8332H279.162V229.164H267V249.997Z"/><path fill="#999" d="M135.917 115.6C142.105 115.6 147.99 117.481 153.571 121.242C159.152 124.882 163.642 129.857 167.039 136.166C170.436 142.354 172.135 149.149 172.135 156.55C172.135 163.83 170.436 170.625 167.039 176.934C163.642 183.243 159.152 188.279 153.571 192.04C147.99 195.68 142.105 197.5 135.917 197.5H104.249V231.898C104.249 235.174 103.278 237.843 101.337 239.906C99.3956 241.969 96.8476 243 93.6929 243C90.6596 243 88.1723 241.969 86.2309 239.906C84.2896 237.722 83.3189 235.053 83.3189 231.898V126.702C83.3189 123.547 84.3503 120.939 86.4129 118.876C88.5969 116.692 91.2663 115.6 94.4209 115.6H135.917ZM135.917 176.752C138.222 176.752 140.467 175.781 142.651 173.84C144.956 171.899 146.776 169.411 148.111 166.378C149.567 163.223 150.295 159.947 150.295 156.55C150.295 153.153 149.567 149.937 148.111 146.904C146.776 143.749 144.956 141.262 142.651 139.442C140.467 137.501 138.222 136.53 135.917 136.53H104.249V176.752H135.917Z"/></svg>