<svg xmlns="http://www.w3.org/2000/svg" width="300" height="300" fill="none" viewBox="0 0 300 300"><g clip-path="url(#clip0)"><path fill="#D1D5DB" d="M0 165V127H299V165H0Z"/><path fill="#4DA6FF" d="M0 165V127H167V165H0Z"/><path fill="#999" d="M202.5 146.25C202.5 163.509 188.509 177.5 171.25 177.5C153.991 177.5 140 163.509 140 146.25C140 128.991 153.991 115 171.25 115C188.509 115 202.5 128.991 202.5 146.25Z"/><path fill="#999" d="M202.5 146.25C202.5 163.509 188.509 177.5 171.25 177.5C153.991 177.5 140 163.509 140 146.25C140 128.991 153.991 115 171.25 115C188.509 115 202.5 128.991 202.5 146.25Z"/><path fill="#999" d="M202.5 146.25C202.5 163.509 188.509 177.5 171.25 177.5C153.991 177.5 140 163.509 140 146.25C140 128.991 153.991 115 171.25 115C188.509 115 202.5 128.991 202.5 146.25Z"/><path fill="#0080FF" d="M202.5 146.25C202.5 163.509 188.509 177.5 171.25 177.5C153.991 177.5 140 163.509 140 146.25C140 128.991 153.991 115 171.25 115C188.509 115 202.5 128.991 202.5 146.25Z"/></g><defs><clipPath id="clip0"><rect width="300" height="300" fill="#fff"/></clipPath></defs></svg>