<svg width="300" height="300" viewBox="0 0 300 300" fill="none" xmlns="http://www.w3.org/2000/svg">
<g clip-path="url(#clip0)">
<path d="M0 165V127H299V165H0Z" fill="#D1D5DB"/>
<path d="M0 165V127H167V165H0Z" fill="#4DA6FF"/>
<path d="M202.5 146.25C202.5 163.509 188.509 177.5 171.25 177.5C153.991 177.5 140 163.509 140 146.25C140 128.991 153.991 115 171.25 115C188.509 115 202.5 128.991 202.5 146.25Z" fill="#999999"/>
<path d="M202.5 146.25C202.5 163.509 188.509 177.5 171.25 177.5C153.991 177.5 140 163.509 140 146.25C140 128.991 153.991 115 171.25 115C188.509 115 202.5 128.991 202.5 146.25Z" fill="#999999"/>
<path d="M202.5 146.25C202.5 163.509 188.509 177.5 171.25 177.5C153.991 177.5 140 163.509 140 146.25C140 128.991 153.991 115 171.25 115C188.509 115 202.5 128.991 202.5 146.25Z" fill="#999999"/>
<path d="M202.5 146.25C202.5 163.509 188.509 177.5 171.25 177.5C153.991 177.5 140 163.509 140 146.25C140 128.991 153.991 115 171.25 115C188.509 115 202.5 128.991 202.5 146.25Z" fill="#0080FF"/>
</g>
<defs>
<clipPath id="clip0">
<rect width="300" height="300" fill="white"/>
</clipPath>
</defs>
</svg>
