<svg width="300" height="300" viewBox="0 0 300 300" fill="none" xmlns="http://www.w3.org/2000/svg">
<g clip-path="url(#clip0)">
<path d="M72.0044 75C13.6055 81 -0.327533 127.5 0.00579373 150C0.00581558 173.333 14.8056 221 74.0044 225H226.001C248.834 225 295.6 210 300 150C298.4 92.4 250.668 76 227.001 75H72.0044Z" fill="#0080FF"/>
<path d="M31 169.5V127H41V169.5H31Z" fill="white"/>
<path d="M55 170V127.5H64L81 155.226V127.5H90V170H81L64 142V170H55Z" fill="white"/>
<path fill-rule="evenodd" clip-rule="evenodd" d="M148.006 150.019C148.172 157.352 151.606 172.019 166.006 172.019C172.006 172.019 183.906 167.619 183.506 150.019C183.506 131.219 171.839 127.185 166.006 127.519C151.206 127.519 147.839 142.519 148.006 150.019ZM156.009 149.687C156.103 154.464 158.036 164.019 166.146 164.019C169.524 164.019 176.226 161.152 176 149.687C176 137.441 169.43 134.813 166.146 135.031C157.811 135.031 155.915 144.802 156.009 149.687Z" fill="white"/>
<path d="M113 170.5L99 128.5H110.5L118.5 159L127 128.5H138L124.5 170.5H113Z" fill="white"/>
<path d="M194 170V127.5H204V146L216.5 127.5H229.5L215 146L229.5 170H217.5L208 154L204 158.5V170H194Z" fill="white"/>
<path d="M239.5 169.5V127H269V135H250V143.5H266V151.5H250V161.5H269V169.5H239.5Z" fill="white"/>
</g>
<defs>
<clipPath id="clip0">
<rect width="300" height="300" fill="white"/>
</clipPath>
</defs>
</svg>
